<svg width="165" height="166" viewBox="0 0 165 166" fill="none" xmlns="http://www.w3.org/2000/svg">
<path d="M82.6477 0.977295C98.9313 0.977295 114.846 5.81174 128.376 14.8692C141.907 23.9266 152.441 36.796 158.646 51.8464C164.848 66.8991 166.442 83.4545 163.221 99.4108C160.003 115.37 152.115 130.011 140.56 141.482L114.499 115.236C120.855 108.929 125.192 100.876 126.963 92.0985C128.735 83.3208 127.859 74.2163 124.447 65.9387C121.033 57.6585 115.24 50.5814 107.797 45.601C100.357 40.618 91.6028 37.9594 82.6477 37.9594V0.977295Z" fill="#F7EFD7"/>
<path d="M140.56 141.482C125.455 156.476 105.121 165.026 83.8386 165.335C62.5538 165.642 41.9821 157.684 26.4487 143.133L51.7394 116.144C60.281 124.147 71.5956 128.526 83.3013 128.355C95.0071 128.187 106.19 123.484 114.499 115.236L140.56 141.482Z" fill="#DAE8F8"/>
<path d="M26.4487 143.133C13.9012 131.378 5.35457 115.986 2.01468 99.1212C-1.32522 82.2539 0.709912 64.7678 7.83288 49.1185L41.4993 64.4362C37.5825 73.0431 36.4634 82.6623 38.3005 91.9376C40.1376 101.213 44.8367 109.681 51.7393 116.144L26.4487 143.133Z" fill="#E8EAF4"/>
<path d="M7.83276 49.1185C13.9481 35.6821 23.5716 24.1419 35.6908 15.7083L56.8221 46.0614C50.1571 50.7002 44.8638 57.0472 41.4992 64.4362L7.83276 49.1185Z" fill="#DDE0EA"/>
<path d="M35.6912 15.7083C42.5418 10.9407 50.0782 7.24497 58.0405 4.74731L69.1149 40.0314C64.7352 41.4052 60.5882 43.4399 56.8224 46.0614L35.6912 15.7083Z" fill="#BFC3CD"/>
<path d="M58.0403 4.74729C66.005 2.24716 74.3016 0.977295 82.6476 0.977295V37.9594C78.0574 37.9594 73.4944 38.6575 69.1147 40.0313L58.0403 4.74729Z" fill="#F1E2B6"/>
<path d="M73.1353 21.9561L73.4002 23.5231C73.2319 23.6122 72.962 23.6963 72.6005 23.7731C72.2316 23.8572 71.8008 23.9018 71.3032 23.9018C69.8771 23.877 68.8075 23.4537 68.092 22.6418C67.369 21.8274 67.0076 20.7927 67.0076 19.5377C67.0398 18.0549 67.473 16.9163 68.2975 16.1192C69.1492 15.3147 70.2064 14.9038 71.4839 14.9038C71.9692 14.9038 72.3876 14.9484 72.7367 15.0276C73.0833 15.1043 73.3408 15.186 73.5091 15.2825L73.1353 16.8841L72.4519 16.6662C72.1945 16.6019 71.8974 16.5697 71.5557 16.5697C70.808 16.5623 70.1866 16.8 69.7038 17.2752C69.2135 17.7456 68.9635 18.4659 68.9437 19.4238C68.9437 20.2976 69.1814 20.9784 69.6394 21.4784C70.0974 21.9735 70.7436 22.2309 71.5681 22.2383L72.4247 22.1616C72.702 22.1096 72.9347 22.0378 73.1353 21.9561ZM74.6778 23.9018L75.0714 21.3323H74.1033L74.3212 20.0452H75.2893L75.4948 18.7605H74.5292L74.7471 17.4757H75.7151L76.1088 14.9038H77.3987L77.005 17.4757H77.6512L78.0449 14.9038H79.3348L78.9412 17.4757H79.9067L79.6889 18.7605H78.7208L78.5153 20.0452H79.4809L79.263 21.3323H78.295L77.9013 23.9018H76.6114L77.005 21.3323H76.3613L75.9677 23.9018H74.6778ZM76.5792 20.0452H77.2254L77.4309 18.7605H76.7872L76.5792 20.0452Z" fill="#DBB13B"/>
<path d="M57.7705 19.1292C59.1694 19.3693 59.5704 20.3347 59.5481 21.3447V21.3224L58.9143 29.657L50.7119 30.2214H50.7193C50.036 30.1941 48.5208 30.1273 48.449 27.9935L49.209 26.5974L50.7466 30.2041L52.0563 25.9513L52.029 25.9563L52.0389 25.944L56.3172 27.3178L55.2129 22.976L59.2932 22.7185L56.0795 20.0723L57.7705 19.1243V19.1292ZM48.449 27.9713V27.9837V27.9713ZM50.8233 21.4511C52.4672 19.805 54.5915 18.8322 55.4085 19.6639C56.2181 20.4857 55.364 22.5057 53.72 24.1468C52.0563 25.788 49.9642 26.8153 49.1471 25.9885C48.3326 25.1568 49.1694 23.0923 50.8183 21.4511H50.8233Z" fill="#81899C"/>
<path d="M88.5377 142.321C89.164 142.321 89.7632 142.572 90.2064 143.012C90.6495 143.455 90.8971 144.057 90.8971 144.681V147.799C90.8971 148.426 90.6495 149.025 90.2064 149.468C89.7632 149.909 89.164 150.159 88.5377 150.159H82.6476C82.6476 150.48 82.9126 150.951 83.2344 150.951H86.7724V152.337C86.7724 152.961 86.5248 153.562 86.0816 154.003C85.6384 154.446 85.0393 154.696 84.4129 154.696H80.8824C80.256 154.696 79.6568 154.446 79.2137 154.003C78.7705 153.562 78.5229 152.961 78.5229 152.337V149.243C78.5229 147.941 79.5776 146.891 80.8824 146.891H85.2126C86.5174 146.891 87.5646 145.837 87.5646 144.532V142.321H88.5377ZM85.0071 152.047C84.6778 152.047 84.4129 152.295 84.4129 152.78C84.4129 153.268 84.6778 153.367 85.0071 153.367C85.0839 153.367 85.1606 153.352 85.2324 153.322C85.3017 153.292 85.3661 153.25 85.4206 153.196C85.475 153.141 85.5196 153.077 85.5493 153.005C85.5765 152.933 85.5939 152.859 85.5939 152.78C85.5939 152.295 85.329 152.047 85.0071 152.047ZM76.7576 150.569C75.4529 150.569 74.3982 149.515 74.3982 148.213V145.094C74.3982 143.789 75.4529 142.735 76.7576 142.735H82.6476C82.6476 142.413 82.3827 141.943 82.0609 141.943H78.5229V140.557C78.5229 139.255 79.5776 138.198 80.8824 138.198H84.4129C85.7177 138.198 86.7724 139.255 86.7724 140.557V143.651C86.7724 144.953 85.7177 146 84.4129 146H80.0827C78.7779 146 77.7307 147.057 77.7307 148.359V150.569H76.7576ZM80.2882 140.846C80.6175 140.846 80.8824 140.599 80.8824 140.111C80.8824 139.626 80.6175 139.527 80.2882 139.527C79.9663 139.527 79.7014 139.626 79.7014 140.111C79.7014 140.599 79.9663 140.846 80.2882 140.846Z" fill="#4A90E2"/>
<path d="M12.4924 86.4448H28.9914V102.941H12.4924V86.4448ZM22.3091 100.064C22.7671 100.963 23.6931 101.649 25.1415 101.649C26.6096 101.649 27.7089 100.889 27.7089 99.4876C27.7089 98.1954 26.9662 97.6162 25.6465 97.0494L25.2603 96.8835C24.5918 96.5988 24.3071 96.4082 24.3071 95.9478C24.3071 95.574 24.5918 95.2794 25.0499 95.2794C25.4906 95.2794 25.7827 95.4725 26.0501 95.9478L27.2509 95.1507C26.7458 94.272 26.0303 93.9329 25.0499 93.9329C23.6659 93.9329 22.7771 94.8116 22.7771 95.9775C22.7771 97.24 23.5198 97.8365 24.6389 98.3143L25.0226 98.4776C25.7381 98.7895 26.159 98.9826 26.159 99.5148C26.159 99.953 25.748 100.275 25.1043 100.275C24.3442 100.275 23.9036 99.8812 23.5743 99.3317L22.3091 100.064ZM21.658 94.0071H17.0752V95.381H18.4518V102.025H20.0536V95.381H21.658V94.0071Z" fill="#5B6A9A"/>
<path d="M24.7305 33.9493H41.2294V50.4478H24.7305V33.9493ZM29.0656 47.7347C29.4321 48.512 30.155 49.1556 31.3929 49.1556C32.7695 49.1556 33.7128 48.4204 33.7128 46.8189V41.5216H32.153V46.7818C32.153 47.5689 31.8336 47.7719 31.3285 47.7719C30.7987 47.7719 30.5784 47.4031 30.3308 46.9724L29.0656 47.7347ZM34.5471 47.5689C35.0051 48.4675 35.9311 49.1556 37.3795 49.1556C38.8452 49.1556 39.9444 48.3932 39.9444 46.9921C39.9444 45.7 39.2041 45.1232 37.882 44.5539L37.4983 44.3881C36.8298 44.1059 36.5451 43.9128 36.5451 43.4549C36.5451 43.0786 36.8298 42.784 37.2879 42.784C37.7261 42.784 38.0207 42.9771 38.2856 43.4549L39.4864 42.6577C38.9838 41.7765 38.2683 41.4374 37.2879 41.4374C35.9039 41.4374 35.0151 42.3186 35.0151 43.482C35.0151 44.747 35.7553 45.341 36.8744 45.8188L37.2606 45.9847C37.9737 46.2941 38.397 46.4872 38.397 47.0194C38.397 47.46 37.9836 47.7793 37.3423 47.7793C36.5823 47.7793 36.1415 47.3857 35.8123 46.8362L34.5471 47.5689Z" fill="#81899C"/>
<path d="M146.413 45.1777C146.413 45.1777 137.153 47.4872 141.595 52.5766C142.907 54.0766 141.256 55.4257 141.256 55.4257C141.256 55.4257 144.573 53.7375 143.028 51.579C141.595 49.5937 140.51 48.6086 146.413 45.1777ZM140.362 46.7991C145.846 42.4771 143.028 39.67 143.028 39.67C144.167 44.1257 139.022 45.4747 137.168 48.257C135.895 50.1458 137.789 52.1855 140.322 54.5222C139.361 52.2251 135.962 50.2547 140.362 46.7991ZM136.762 60.5572C132.593 61.7181 139.307 64.1068 144.6 61.8543C144.085 61.6513 143.585 61.4087 143.11 61.124C141.27 61.5424 139.374 61.6241 137.507 61.3666C135.732 61.1513 136.762 60.5572 136.762 60.5572ZM143.964 58.2897C141.595 58.8021 139.144 58.9234 136.735 58.6387C134.962 58.463 136.126 57.5991 136.126 57.5991C131.523 59.1264 138.671 60.8394 145.061 58.9779C144.667 58.8294 144.288 58.5719 143.964 58.2897ZM148.594 62.7454C148.594 62.7454 149.364 63.3791 147.767 63.8643C144.68 64.7827 135.002 65.0673 132.323 63.9064C131.36 63.488 133.174 62.9063 133.744 62.785C134.053 62.7033 134.365 62.6761 134.677 62.6761C133.608 61.9483 127.733 64.1613 131.714 64.7826C142.501 66.5377 151.394 63.9732 148.594 62.7454ZM144.883 56.1832C145.276 55.9258 145.697 55.7104 146.128 55.5198C146.128 55.5198 144.085 55.8713 142.04 56.0619C139.874 56.2773 137.695 56.3045 135.529 56.1411C132.35 55.7228 137.277 54.5222 137.277 54.5222C135.786 54.5222 134.326 54.8737 132.999 55.5346C130.223 56.8837 139.901 57.4927 144.883 56.1832ZM146.103 59.4507C146.076 59.5027 146.049 59.5448 145.994 59.5844C152.776 57.8169 150.285 53.3192 147.037 54.4405C146.861 54.5222 146.712 54.6287 146.616 54.7772C146.806 54.7104 146.994 54.6559 147.197 54.6163C148.824 54.292 151.151 56.8169 146.103 59.4507ZM146.279 65.6738C142.204 66.3768 138.034 66.4312 133.932 65.8644C133.932 65.8644 134.556 66.3768 137.737 66.5798C142.61 66.8892 150.094 66.404 150.272 64.1069C150.312 64.1217 149.961 64.9856 146.279 65.6738Z" fill="#DFB94E"/>
<path opacity="0.5" d="M68.2135 79.1745C68.1714 79.7414 67.961 80.1894 67.5822 80.5162C67.2034 80.8405 66.7057 81.0038 66.0868 81.0038C65.4109 81.0038 64.8786 80.7786 64.4874 80.3231C64.1012 79.8652 63.9081 79.2389 63.9081 78.4443V78.1225C63.9081 77.615 63.9972 77.167 64.1754 76.7808C64.3562 76.3947 64.6112 76.0976 64.9405 75.8921C65.2747 75.6842 65.6609 75.5802 66.1016 75.5802C66.7107 75.5802 67.2034 75.7437 67.5748 76.0704C67.9461 76.3947 68.1615 76.8551 68.2209 77.4442H67.1316C67.1043 77.1026 67.0103 76.8575 66.8444 76.7041C66.6835 76.5481 66.4359 76.4714 66.1016 76.4714C65.7402 76.4714 65.4678 76.6026 65.2871 76.8625C65.1064 77.1224 65.0147 77.5259 65.0098 78.0705V78.469C65.0098 79.0409 65.0965 79.4567 65.2673 79.7216C65.4431 79.984 65.7154 80.1152 66.0868 80.1152C66.4235 80.1152 66.6736 80.0409 66.8394 79.8874C67.0053 79.734 67.1019 79.4938 67.1242 79.1745H68.2135ZM68.6963 78.9344C68.6963 78.5458 68.7706 78.1992 68.9191 77.8923C69.0702 77.5878 69.2856 77.3527 69.5653 77.1868C69.8476 77.0185 70.1769 76.9368 70.5482 76.9368C71.0781 76.9368 71.5088 77.0977 71.8431 77.422C72.1798 77.7462 72.3655 78.1868 72.4051 78.7413L72.4125 79.0111C72.4125 79.6127 72.2442 80.0954 71.9075 80.4617C71.5732 80.8232 71.1226 81.0038 70.5557 81.0038C69.9912 81.0038 69.5381 80.8232 69.1989 80.4617C68.8622 80.0979 68.6963 79.6053 68.6963 78.9815V78.9344ZM69.7436 79.0111C69.7436 79.3825 69.8129 79.6671 69.954 79.8651C70.0927 80.0607 70.2957 80.1597 70.5557 80.1597C70.8107 80.1597 71.0087 80.0632 71.1499 79.8701C71.2935 79.6745 71.3653 79.3626 71.3653 78.9344C71.3653 78.568 71.2935 78.2859 71.1499 78.0854C71.0087 77.8848 70.8082 77.7858 70.5482 77.7858C70.2932 77.7858 70.0927 77.8848 69.954 78.0854C69.8129 78.2834 69.7436 78.5928 69.7436 79.0111ZM72.8953 78.9418C72.8953 78.3304 73.0315 77.8428 73.3038 77.4789C73.5811 77.1175 73.9574 76.9368 74.4328 76.9368C74.8141 76.9368 75.131 77.0779 75.3786 77.365V75.3624H76.4308V80.932H75.485L75.433 80.5162C75.1731 80.8405 74.8364 81.0038 74.4254 81.0038C73.9624 81.0038 73.5935 80.8232 73.3113 80.4617C73.034 80.0954 72.8953 79.5904 72.8953 78.9418ZM73.9426 79.0186C73.9426 79.3849 74.007 79.6671 74.1357 79.8627C74.2645 80.0582 74.4501 80.1573 74.6928 80.1573C75.0171 80.1573 75.2474 80.0186 75.3786 79.7463V78.1992C75.2498 77.9244 75.0221 77.7883 74.7002 77.7883C74.1951 77.7883 73.9426 78.1992 73.9426 79.0186ZM79.0502 81.0038C78.4734 81.0038 78.0054 80.8281 77.6415 80.4741C77.2825 80.1226 77.1017 79.6523 77.1017 79.0656V78.9641C77.1017 78.5681 77.1785 78.2166 77.3295 77.9071C77.483 77.5952 77.6984 77.3576 77.9757 77.1892C78.2555 77.0209 78.5749 76.9368 78.9339 76.9368C79.4711 76.9368 79.892 77.1051 80.199 77.4442C80.5085 77.7833 80.6645 78.2611 80.6645 78.8824V79.3107H78.1639C78.1986 79.5681 78.3001 79.7735 78.4684 79.927C78.6417 80.083 78.8571 80.1597 79.1196 80.1597C79.5231 80.1597 79.8375 80.0137 80.0653 79.7216L80.5803 80.2983C80.4218 80.5186 80.2089 80.6944 79.9415 80.8207C79.6741 80.942 79.377 81.0038 79.0502 81.0038ZM78.9289 77.7858C78.7209 77.7858 78.5526 77.8551 78.4214 77.9937C78.2951 78.1348 78.2109 78.3354 78.1763 78.5978H79.6345V78.5136C79.6296 78.2809 79.5652 78.1027 79.4439 77.9764C79.3251 77.8477 79.1517 77.7858 78.9289 77.7858ZM85.2373 79.8479C85.2373 79.7191 85.173 79.6201 85.0442 79.5458C84.918 79.4715 84.7149 79.4048 84.4352 79.3478C83.5018 79.1523 83.0363 78.7562 83.0363 78.1571C83.0363 77.8106 83.1799 77.521 83.4671 77.2883C83.7568 77.0531 84.1356 76.9368 84.6011 76.9368C85.1012 76.9368 85.4973 77.0531 85.7944 77.2883C86.094 77.5234 86.245 77.8279 86.245 78.2017H85.1977C85.1977 78.0507 85.1482 77.9294 85.0516 77.8329C84.9551 77.7338 84.8041 77.6843 84.5986 77.6843C84.4228 77.6843 84.2841 77.724 84.1876 77.8032C84.091 77.8824 84.044 77.9839 84.044 78.1077C84.044 78.224 84.0985 78.318 84.2074 78.3898C84.3188 78.4591 84.5045 78.521 84.7645 78.5755C85.0269 78.625 85.2472 78.6844 85.4255 78.7487C85.9801 78.9517 86.2549 79.3032 86.2549 79.8033C86.2549 80.1622 86.1014 80.4518 85.7944 80.6746C85.4874 80.8949 85.0913 81.0038 84.606 81.0038C84.2767 81.0038 83.9846 80.9469 83.7271 80.8306C83.4745 80.7118 83.274 80.5508 83.1304 80.3478C82.9843 80.1424 82.9125 79.9221 82.9125 79.6844H83.9053C83.9152 79.8701 83.9846 80.0137 84.1133 80.1127C84.2396 80.2117 84.4129 80.2612 84.6283 80.2612C84.8288 80.2612 84.9798 80.2241 85.0813 80.1498C85.1853 80.0706 85.2373 79.9716 85.2373 79.8479ZM88.1885 76.0432V77.0085H88.8595V77.7784H88.1885V79.7364C88.1885 79.88 88.2158 79.984 88.2727 80.0483C88.3272 80.1102 88.4336 80.1424 88.5921 80.1424C88.7085 80.1424 88.81 80.1325 88.8991 80.1152V80.9097C88.6936 80.9741 88.4831 81.0038 88.2653 81.0038C87.5299 81.0038 87.1561 80.6325 87.1413 79.8924V77.7784H86.5668V77.0085H87.1413V76.0432H88.1885ZM91.7166 80.932C91.6695 80.838 91.6349 80.7217 91.6126 80.5806C91.3576 80.8628 91.0283 81.0038 90.6223 81.0038C90.2385 81.0038 89.9191 80.8924 89.6641 80.6721C89.4141 80.4493 89.2878 80.1672 89.2878 79.8305C89.2878 79.4146 89.4413 79.0953 89.7483 78.8725C90.0578 78.6497 90.5034 78.5384 91.0852 78.5359H91.568V78.3106C91.568 78.1299 91.521 77.9838 91.4269 77.8749C91.3353 77.766 91.1892 77.7116 90.9887 77.7116C90.8129 77.7116 90.6743 77.7536 90.5703 77.8378C90.4712 77.9245 90.4217 78.0408 90.4217 78.1868H89.3745C89.3745 77.9591 89.4438 77.7487 89.5849 77.5556C89.726 77.3626 89.9241 77.2115 90.1791 77.1026C90.4366 76.9912 90.7238 76.9368 91.0432 76.9368C91.526 76.9368 91.9097 77.0581 92.192 77.3032C92.4792 77.5433 92.6203 77.8848 92.6203 78.3255V80.0261C92.6227 80.3974 92.6747 80.6796 92.7763 80.8702V80.932H91.7166ZM90.85 80.2043C91.006 80.2043 91.1471 80.1696 91.2784 80.1028C91.4096 80.031 91.5061 79.9394 91.568 79.8231V79.1473H91.1768C90.652 79.1473 90.3722 79.3305 90.34 79.6919L90.3351 79.7538C90.3351 79.885 90.3821 79.9914 90.4737 80.0756C90.5653 80.1597 90.6916 80.2043 90.85 80.2043ZM94.6802 76.0432V77.0085H95.3511V77.7784H94.6802V79.7364C94.6802 79.88 94.7074 79.984 94.7643 80.0483C94.8188 80.1102 94.9253 80.1424 95.0837 80.1424C95.2001 80.1424 95.3016 80.1325 95.3907 80.1152V80.9097C95.1852 80.9741 94.9748 81.0038 94.7569 81.0038C94.0216 81.0038 93.6477 80.6325 93.6329 79.8924V77.7784H93.0585V77.0085H93.6329V76.0432H94.6802ZM98.0597 79.8479C98.0597 79.7191 97.9978 79.6201 97.869 79.5458C97.7428 79.4715 97.5397 79.4048 97.26 79.3478C96.3266 79.1523 95.8587 78.7562 95.8587 78.1571C95.8587 77.8106 96.0022 77.521 96.2919 77.2883C96.5816 77.0531 96.9604 76.9368 97.4258 76.9368C97.9235 76.9368 98.3221 77.0531 98.6192 77.2883C98.9188 77.5234 99.0698 77.8279 99.0698 78.2017H98.02C98.02 78.0507 97.973 77.9294 97.8765 77.8329C97.7799 77.7338 97.6289 77.6843 97.4234 77.6843C97.2451 77.6843 97.109 77.724 97.0124 77.8032C96.9158 77.8824 96.8663 77.9839 96.8663 78.1077C96.8663 78.224 96.9208 78.318 97.0297 78.3898C97.1411 78.4591 97.3268 78.521 97.5893 78.5755C97.8492 78.625 98.0696 78.6844 98.2503 78.7487C98.8024 78.9517 99.0797 79.3032 99.0797 79.8033C99.0797 80.1622 98.9262 80.4518 98.6192 80.6746C98.3122 80.8949 97.9161 81.0038 97.4308 81.0038C97.1015 81.0038 96.8094 80.9469 96.5519 80.8306C96.2969 80.7118 96.0988 80.5508 95.9527 80.3478C95.8091 80.1424 95.7349 79.9221 95.7349 79.6844H96.7301C96.7401 79.8701 96.8094 80.0137 96.9356 80.1127C97.0644 80.2117 97.2352 80.2612 97.4506 80.2612C97.6512 80.2612 97.8022 80.2241 97.9037 80.1498C98.0077 80.0706 98.0597 79.9716 98.0597 79.8479ZM99.8076 80.4171C99.8076 80.2513 99.8645 80.1152 99.976 80.0112C100.09 79.9072 100.231 79.8552 100.399 79.8552C100.573 79.8552 100.714 79.9072 100.825 80.0112C100.939 80.1152 100.994 80.2513 100.994 80.4171C100.994 80.5805 100.939 80.7167 100.828 80.8207C100.716 80.9222 100.575 80.9716 100.399 80.9716C100.228 80.9716 100.087 80.9222 99.976 80.8207C99.8645 80.7167 99.8076 80.5805 99.8076 80.4171ZM99.8076 77.4467C99.8076 77.2808 99.8645 77.1447 99.976 77.0407C100.09 76.9368 100.231 76.8848 100.399 76.8848C100.573 76.8848 100.714 76.9368 100.825 77.0407C100.939 77.1447 100.994 77.2808 100.994 77.4467C100.994 77.6125 100.939 77.7462 100.828 77.8502C100.716 77.9517 100.575 78.0012 100.399 78.0012C100.228 78.0012 100.087 77.9517 99.976 77.8502C99.8645 77.7462 99.8076 77.6125 99.8076 77.4467ZM44.4554 89.5464C44.4554 89.3632 44.3861 89.2246 44.2475 89.1256C44.1113 89.0241 43.8736 88.935 43.532 88.8632C43.1952 88.7914 42.9254 88.7048 42.7248 88.6033C42.5268 88.5018 42.3782 88.3805 42.2816 88.2394C42.1876 88.1008 42.1405 87.9324 42.1405 87.7394C42.1405 87.4176 42.2767 87.1453 42.5466 86.9249C42.8189 86.7022 43.168 86.5908 43.5914 86.5908C44.037 86.5908 44.396 86.7046 44.6708 86.9349C44.9506 87.1651 45.0893 87.4572 45.0893 87.8161H44.4133C44.4133 87.6329 44.3366 87.4745 44.1781 87.3408C44.0246 87.2071 43.8291 87.1403 43.5914 87.1403C43.3463 87.1403 43.1556 87.1948 43.017 87.3012C42.8808 87.4076 42.8115 87.5463 42.8115 87.7171C42.8115 87.8804 42.8759 88.0017 43.0046 88.0834C43.1309 88.1651 43.3636 88.2444 43.6954 88.3186C44.0321 88.3954 44.3044 88.4844 44.5124 88.5884C44.7203 88.6924 44.8738 88.8186 44.9729 88.9647C45.0744 89.1107 45.1264 89.289 45.1264 89.4994C45.1264 89.8484 44.9853 90.1306 44.7055 90.3435C44.4233 90.5539 44.0593 90.6578 43.6136 90.6578C43.2992 90.6578 43.0194 90.6034 42.7793 90.492C42.5367 90.3806 42.346 90.2246 42.2099 90.0266C42.0737 89.8261 42.0068 89.6108 42.0068 89.3781H42.6778C42.6902 89.6033 42.7793 89.7816 42.9452 89.9152C43.116 90.0464 43.3364 90.1108 43.6136 90.1108C43.8662 90.1108 44.0692 90.0613 44.2227 89.9598C44.3762 89.8558 44.4554 89.7172 44.4554 89.5464ZM45.8221 88.5884C45.8221 88.2047 45.8964 87.8582 46.0474 87.5512C46.1984 87.2443 46.4089 87.0067 46.6763 86.8408C46.9486 86.6725 47.2556 86.5908 47.6022 86.5908C48.137 86.5908 48.5678 86.774 48.8971 87.1453C49.2289 87.5141 49.3947 88.0067 49.3947 88.6206V88.6676C49.3947 89.0488 49.3205 89.3929 49.1719 89.6974C49.0283 89.9994 48.8179 90.2345 48.5455 90.4053C48.2756 90.5737 47.9637 90.6578 47.6096 90.6578C47.0773 90.6578 46.6466 90.4747 46.3148 90.1034C45.9855 89.7345 45.8221 89.2444 45.8221 88.6355V88.5884ZM46.4955 88.6676C46.4955 89.1033 46.597 89.4523 46.7976 89.7147C47.0006 89.9796 47.2705 90.1108 47.6096 90.1108C47.9513 90.1108 48.2212 89.9771 48.4217 89.7122C48.6223 89.4449 48.7238 89.0686 48.7238 88.5884C48.7238 88.1577 48.6198 87.8087 48.4143 87.5438C48.2113 87.2764 47.9414 87.1403 47.6022 87.1403C47.2704 87.1403 47.0031 87.274 46.8 87.5364C46.597 87.8012 46.4955 88.1775 46.4955 88.6676ZM52.6579 90.1974C52.3979 90.5043 52.0141 90.6578 51.5091 90.6578C51.0907 90.6578 50.7713 90.5366 50.5509 90.2964C50.3331 90.0514 50.2241 89.6924 50.2217 89.2147V86.6625H50.8926V89.1973C50.8926 89.7914 51.1328 90.0885 51.618 90.0885C52.1305 90.0885 52.4697 89.8979 52.6406 89.5167V86.6625H53.3115V90.586H52.6727L52.6579 90.1974ZM56.2305 87.2641C56.129 87.2468 56.0176 87.2393 55.9012 87.2393C55.4605 87.2393 55.1609 87.4275 55.005 87.8012V90.586H54.334V86.6625H54.9852L54.9975 87.1156C55.2179 86.7665 55.5298 86.5908 55.9334 86.5908C56.0621 86.5908 56.1637 86.6081 56.2305 86.6403V87.2641ZM58.3523 90.1108C58.59 90.1108 58.8004 90.039 58.9787 89.8929C59.1569 89.7494 59.2584 89.5662 59.2758 89.3484H59.9121C59.8997 89.5736 59.8229 89.789 59.6793 89.992C59.5357 90.195 59.3451 90.3559 59.1074 90.4771C58.8697 90.5984 58.6172 90.6578 58.3523 90.6578C57.8175 90.6578 57.3916 90.4821 57.0747 90.1256C56.7603 89.7667 56.6044 89.279 56.6044 88.6602V88.5488C56.6044 88.1651 56.6737 87.826 56.8148 87.5289C56.9534 87.2319 57.154 87.0017 57.4164 86.8359C57.6788 86.6725 57.9908 86.5908 58.3473 86.5908C58.788 86.5908 59.1545 86.722 59.4441 86.9843C59.7363 87.2492 59.8923 87.5909 59.9121 88.0117H59.2758C59.2584 87.7567 59.1594 87.5488 58.9861 87.3879C58.8153 87.2245 58.6023 87.1403 58.3473 87.1403C58.0081 87.1403 57.7432 87.2641 57.5551 87.5116C57.3669 87.7542 57.2753 88.1107 57.2753 88.5736V88.6998C57.2753 89.1528 57.3669 89.5019 57.5551 89.7444C57.7408 89.9895 58.0057 90.1108 58.3523 90.1108ZM62.2938 90.6578C61.7615 90.6578 61.3282 90.4845 60.9965 90.1355C60.6622 89.7865 60.4964 89.3187 60.4964 88.732V88.6107C60.4964 88.2196 60.5682 87.873 60.7167 87.5686C60.8653 87.2616 61.0732 87.0239 61.3406 86.8507C61.608 86.6774 61.8977 86.5908 62.2096 86.5908C62.7196 86.5908 63.1183 86.7591 63.4005 87.0933C63.6827 87.4299 63.8239 87.9101 63.8239 88.5364V88.8162H61.1673C61.1747 89.2023 61.2886 89.5167 61.504 89.7568C61.7219 89.9919 61.9967 90.1108 62.3309 90.1108C62.5661 90.1108 62.7692 90.0637 62.9326 89.9672C63.096 89.8682 63.2396 89.7419 63.3634 89.581L63.7744 89.9004C63.4451 90.4053 62.9524 90.6578 62.2938 90.6578ZM62.2096 87.1403C61.9397 87.1403 61.712 87.2393 61.5288 87.4398C61.3456 87.6354 61.2317 87.9102 61.1871 88.2642H63.1529V88.2146C63.1331 87.873 63.0415 87.6106 62.8781 87.425C62.7147 87.2344 62.4919 87.1403 62.2096 87.1403ZM66.5002 87.2641C66.3987 87.2468 66.2898 87.2393 66.1709 87.2393C65.7302 87.2393 65.4331 87.4275 65.2747 87.8012V90.586H64.6038V86.6625H65.2574L65.2673 87.1156C65.4876 86.7665 65.7996 86.5908 66.2031 86.5908C66.3344 86.5908 66.4334 86.6081 66.5002 86.6403V87.2641ZM68.6765 90.6578C68.1442 90.6578 67.7134 90.4845 67.3792 90.1355C67.0449 89.7865 66.8791 89.3187 66.8791 88.732V88.6107C66.8791 88.2196 66.9508 87.873 67.0994 87.5686C67.2504 87.2616 67.4584 87.0239 67.7233 86.8507C67.9907 86.6774 68.2828 86.5908 68.5948 86.5908C69.1048 86.5908 69.501 86.7591 69.7832 87.0933C70.0655 87.4299 70.2066 87.9101 70.2066 88.5364V88.8162H67.55C67.5599 89.2023 67.6713 89.5167 67.8867 89.7568C68.1046 89.9919 68.3794 90.1108 68.7136 90.1108C68.9513 90.1108 69.1519 90.0637 69.3153 89.9672C69.4787 89.8682 69.6247 89.7419 69.7461 89.581L70.1571 89.9004C69.8278 90.4053 69.3351 90.6578 68.6765 90.6578ZM68.5948 87.1403C68.3225 87.1403 68.0947 87.2393 67.9115 87.4398C67.7283 87.6354 67.6144 87.9102 67.5698 88.2642H69.5356V88.2146C69.5183 87.873 69.4242 87.6106 69.2608 87.425C69.0974 87.2344 68.8746 87.1403 68.5948 87.1403ZM72.883 87.2641C72.7814 87.2468 72.6725 87.2393 72.5536 87.2393C72.1129 87.2393 71.8158 87.4275 71.6574 87.8012V90.586H70.9865V86.6625H71.6401L71.65 87.1156C71.8703 86.7665 72.1823 86.5908 72.5858 86.5908C72.7171 86.5908 72.8161 86.6081 72.883 86.6403V87.2641ZM73.0686 90.2346C73.0686 90.1182 73.1033 90.0216 73.1701 89.9449C73.2394 89.8657 73.3434 89.8286 73.4821 89.8286C73.6207 89.8286 73.7247 89.8657 73.794 89.9449C73.8658 90.0216 73.903 90.1182 73.903 90.2346C73.903 90.346 73.8658 90.4375 73.794 90.5143C73.7247 90.5885 73.6207 90.6256 73.4821 90.6256C73.3434 90.6256 73.2394 90.5885 73.1701 90.5143C73.1033 90.4375 73.0686 90.346 73.0686 90.2346ZM75.7425 90.586H75.0716V86.6625H75.7425V90.586ZM75.0171 85.6229C75.0171 85.514 75.0493 85.4224 75.1136 85.3457C75.183 85.2714 75.282 85.2342 75.4108 85.2342C75.542 85.2342 75.641 85.2714 75.7103 85.3457C75.7772 85.4224 75.8118 85.514 75.8118 85.6229C75.8118 85.7318 75.7772 85.8209 75.7103 85.8927C75.641 85.967 75.542 86.0016 75.4108 86.0016C75.282 86.0016 75.183 85.967 75.1136 85.8927C75.0493 85.8209 75.0171 85.7318 75.0171 85.6229ZM76.6412 88.5884C76.6412 88.2047 76.7155 87.8582 76.8666 87.5512C77.0176 87.2443 77.228 87.0067 77.4979 86.8408C77.7677 86.6725 78.0772 86.5908 78.4214 86.5908C78.9562 86.5908 79.387 86.774 79.7162 87.1453C80.048 87.5141 80.2139 88.0067 80.2139 88.6206V88.6676C80.2139 89.0488 80.1396 89.3929 79.9935 89.6974C79.8475 89.9994 79.637 90.2345 79.3647 90.4053C79.0948 90.5737 78.7828 90.6578 78.4288 90.6578C77.8965 90.6578 77.4657 90.4747 77.1339 90.1034C76.8046 89.7345 76.6412 89.2444 76.6412 88.6355V88.5884ZM77.3147 88.6676C77.3147 89.1033 77.4162 89.4523 77.6167 89.7147C77.8198 89.9796 78.0896 90.1108 78.4288 90.1108C78.7705 90.1108 79.0403 89.9771 79.2409 89.7122C79.4414 89.4449 79.5429 89.0686 79.5429 88.5884C79.5429 88.1577 79.4389 87.8087 79.2334 87.5438C79.0304 87.2764 78.7606 87.1403 78.4214 87.1403C78.0896 87.1403 77.8247 87.274 77.6217 87.5364C77.4186 87.8012 77.3147 88.1775 77.3147 88.6676ZM81.1893 91.0391H80.6125L82.8184 85.306H83.3904L81.1893 91.0391ZM84.7471 86.6625L84.7645 87.0982C85.0517 86.7591 85.4404 86.5908 85.9281 86.5908C86.4777 86.5908 86.8516 86.8012 87.0497 87.222C87.1809 87.0314 87.3492 86.8804 87.5572 86.7641C87.7676 86.6477 88.0152 86.5908 88.2999 86.5908C89.1615 86.5908 89.5998 87.0462 89.6146 87.9572V90.586H88.9437V87.9968C88.9437 87.7171 88.8793 87.5067 88.7505 87.3705C88.6218 87.2294 88.4064 87.1601 88.1044 87.1601C87.8568 87.1601 87.6488 87.2344 87.4854 87.3854C87.322 87.5314 87.2254 87.7319 87.1982 87.9819V90.586H86.5248V88.0141C86.5248 87.4448 86.245 87.1601 85.6855 87.1601C85.2472 87.1601 84.9452 87.3458 84.7843 87.722V90.586H84.1133V86.6625H84.7471ZM93.0511 90.586C93.0139 90.5093 92.9817 90.3707 92.957 90.1727C92.645 90.497 92.2737 90.6578 91.8404 90.6578C91.4542 90.6578 91.1372 90.5489 90.8872 90.3311C90.6396 90.1132 90.5183 89.8336 90.5183 89.4994C90.5183 89.0909 90.6718 88.7741 90.9813 88.5488C91.2932 88.3211 91.7314 88.2072 92.2934 88.2072H92.9471V87.9002C92.9471 87.6651 92.8778 87.4794 92.7366 87.3408C92.5955 87.1997 92.39 87.1304 92.1177 87.1304C91.8775 87.1304 91.677 87.1898 91.5136 87.3111C91.3527 87.4324 91.2709 87.5785 91.2709 87.7493H90.5975C90.5975 87.5537 90.6668 87.3656 90.803 87.1849C90.9441 87.0017 91.1323 86.8556 91.37 86.7492C91.6076 86.6428 91.8701 86.5908 92.1573 86.5908C92.6079 86.5908 92.9619 86.7046 93.2194 86.9299C93.4744 87.1552 93.6081 87.4671 93.618 87.8631V89.6677C93.618 90.0291 93.6651 90.3162 93.7567 90.5291V90.586H93.0511ZM91.9394 90.0736C92.1499 90.0736 92.3479 90.0192 92.5361 89.9128C92.7267 89.8038 92.8629 89.6603 92.9471 89.487V88.6825H92.4222C91.6002 88.6825 91.1892 88.9226 91.1892 89.4028C91.1892 89.6132 91.2585 89.7791 91.3972 89.8979C91.5383 90.0167 91.7191 90.0736 91.9394 90.0736ZM95.3041 86.6625L95.3263 87.1551C95.6259 86.7789 96.0171 86.5908 96.5024 86.5908C97.3293 86.5908 97.7477 87.0586 97.7551 87.9943V90.586H97.0842V87.9894C97.0817 87.7072 97.0173 87.4968 96.8886 87.3631C96.7623 87.2269 96.5667 87.1601 96.2969 87.1601C96.0815 87.1601 95.8884 87.2171 95.7249 87.3334C95.5615 87.4498 95.4328 87.6007 95.3412 87.7913V90.586H94.6703V86.6625H95.3041ZM98.5895 88.5884C98.5895 88.2047 98.6663 87.8582 98.8148 87.5512C98.9683 87.2443 99.1787 87.0067 99.4461 86.8408C99.716 86.6725 100.025 86.5908 100.37 86.5908C100.904 86.5908 101.338 86.774 101.664 87.1453C101.996 87.5141 102.162 88.0067 102.162 88.6206V88.6676C102.162 89.0488 102.088 89.3929 101.942 89.6974C101.796 89.9994 101.588 90.2345 101.313 90.4053C101.043 90.5737 100.731 90.6578 100.377 90.6578C99.8472 90.6578 99.4139 90.4747 99.0822 90.1034C98.7554 89.7345 98.5895 89.2444 98.5895 88.6355V88.5884ZM99.2654 88.6676C99.2654 89.1033 99.3644 89.4523 99.565 89.7147C99.768 89.9796 100.04 90.1108 100.377 90.1108C100.719 90.1108 100.989 89.9771 101.192 89.7122C101.392 89.4449 101.491 89.0686 101.491 88.5884C101.491 88.1577 101.39 87.8087 101.184 87.5438C100.981 87.2764 100.709 87.1403 100.37 87.1403C100.04 87.1403 99.7729 87.274 99.5699 87.5364C99.3669 87.8012 99.2654 88.1775 99.2654 88.6676ZM103.732 90.586H103.061V85.0164H103.732V90.586ZM104.633 88.5884C104.633 88.2047 104.707 87.8582 104.858 87.5512C105.009 87.2443 105.22 87.0067 105.487 86.8408C105.76 86.6725 106.067 86.5908 106.413 86.5908C106.948 86.5908 107.379 86.774 107.708 87.1453C108.04 87.5141 108.206 88.0067 108.206 88.6206V88.6676C108.206 89.0488 108.131 89.3929 107.983 89.6974C107.839 89.9994 107.629 90.2345 107.356 90.4053C107.084 90.5737 106.772 90.6578 106.421 90.6578C105.888 90.6578 105.457 90.4747 105.126 90.1034C104.796 89.7345 104.633 89.2444 104.633 88.6355V88.5884ZM105.306 88.6676C105.306 89.1033 105.408 89.4523 105.608 89.7147C105.811 89.9796 106.081 90.1108 106.421 90.1108C106.762 90.1108 107.032 89.9771 107.233 89.7122C107.433 89.4449 107.535 89.0686 107.535 88.5884C107.535 88.1577 107.431 87.8087 107.225 87.5438C107.022 87.2764 106.752 87.1403 106.413 87.1403C106.081 87.1403 105.814 87.274 105.611 87.5364C105.408 87.8012 105.306 88.1775 105.306 88.6676ZM109.676 86.6625L109.696 87.0982C109.983 86.7591 110.372 86.5908 110.86 86.5908C111.409 86.5908 111.781 86.8012 111.979 87.222C112.11 87.0314 112.281 86.8804 112.489 86.7641C112.699 86.6477 112.947 86.5908 113.232 86.5908C114.091 86.5908 114.529 87.0462 114.544 87.9572V90.586H113.873V87.9968C113.873 87.7171 113.808 87.5067 113.68 87.3705C113.553 87.2294 113.338 87.1601 113.036 87.1601C112.786 87.1601 112.58 87.2344 112.415 87.3854C112.251 87.5314 112.155 87.7319 112.13 87.9819V90.586H111.454V88.0141C111.454 87.4448 111.174 87.1601 110.617 87.1601C110.176 87.1601 109.874 87.3458 109.713 87.722V90.586H109.042V86.6625H109.676ZM115.381 88.5884C115.381 88.2047 115.457 87.8582 115.606 87.5512C115.759 87.2443 115.97 87.0067 116.237 86.8408C116.51 86.6725 116.817 86.5908 117.163 86.5908C117.698 86.5908 118.129 86.774 118.458 87.1453C118.787 87.5141 118.953 88.0067 118.953 88.6206V88.6676C118.953 89.0488 118.881 89.3929 118.733 89.6974C118.587 89.9994 118.379 90.2345 118.106 90.4053C117.834 90.5737 117.522 90.6578 117.171 90.6578C116.638 90.6578 116.205 90.4747 115.876 90.1034C115.546 89.7345 115.381 89.2444 115.381 88.6355V88.5884ZM116.056 88.6676C116.056 89.1033 116.156 89.4523 116.359 89.7147C116.562 89.9796 116.831 90.1108 117.171 90.1108C117.51 90.1108 117.782 89.9771 117.983 89.7122C118.183 89.4449 118.282 89.0686 118.282 88.5884C118.282 88.1577 118.181 87.8087 117.975 87.5438C117.772 87.2764 117.5 87.1403 117.163 87.1403C116.831 87.1403 116.564 87.274 116.361 87.5364C116.158 87.8012 116.056 88.1775 116.056 88.6676ZM120.431 86.6625L120.451 87.1551C120.751 86.7789 121.144 86.5908 121.627 86.5908C122.456 86.5908 122.875 87.0586 122.882 87.9943V90.586H122.211V87.9894C122.209 87.7072 122.142 87.4968 122.016 87.3631C121.89 87.2269 121.691 87.1601 121.424 87.1601C121.206 87.1601 121.016 87.2171 120.85 87.3334C120.686 87.4498 120.558 87.6007 120.466 87.7913V90.586H119.795V86.6625H120.431Z" fill="#04143A"/>
</svg>
